<?xml version="1.0" encoding="UTF-8"?>
<svg width="578px" height="578px" viewBox="0 0 578 578" version="1.1" xmlns="http://www.w3.org/2000/svg" xmlns:xlink="http://www.w3.org/1999/xlink">
    <title>画板</title>
    <defs>
        <radialGradient cx="97.0023116%" cy="4.09250211%" fx="97.0023116%" fy="4.09250211%" r="114.155521%" id="radialGradient-1">
            <stop stop-color="#E44857" offset="0%"></stop>
            <stop stop-color="#C711E1" offset="46.9%"></stop>
            <stop stop-color="#7F52FF" offset="100%"></stop>
        </radialGradient>
    </defs>
    <g id="画板" stroke="none" stroke-width="1" fill="none" fill-rule="evenodd">
        <g id="甜甜圈" transform="translate(10.000000, 10.000000)" fill-rule="nonzero">
            <rect id="矩形" fill="#000000" opacity="0" x="0" y="0" width="558" height="558"></rect>
            <path d="M215.121048,374.346714 L193.933559,375 C136.760101,375 64.1874894,348.596371 48.2968724,303.737421 L43,261.491614 C43,204.492439 89.7981403,177 146.916991,177 L262.083009,177 C319.256467,177 366,204.492439 366,261.491614 L360.703128,303.737421 C344.867117,351.263954 272.294505,374.346714 215.121048,374.346714 L215.121048,374.346714 Z" id="路径" fill="#E29C37"></path>
            <path d="M194.071627,380 L193.962715,380 C163.902862,380 131.011284,372.973417 103.674244,360.717748 C81.7283729,350.858744 53.5200327,333.210581 43.6089943,305.049778 L43.3911693,304.505082 L38,261.310659 L38,260.983842 C38,232.387282 49.2724448,208.910868 70.6192968,192.951264 C89.8968111,178.57128 116.308095,171 147.075879,171 L261.924121,171 C292.691905,171 319.103189,178.57128 338.380703,192.951264 C359.727555,208.856398 371,232.387282 371,260.983842 L371,261.310659 L365.608831,304.450612 L365.445462,304.940839 C357.658217,328.253844 336.855928,347.753974 305.2713,361.371384 C278.80556,372.755538 245.968438,379.291895 215.146198,379.291895 L194.071627,380 Z M54.0645953,301.999479 C69.2034342,343.450873 138.253966,369.106072 193.908258,369.160542 L215.146198,368.506906 C244.607032,368.506906 275.919379,362.297368 301.023712,351.45791 C320.900245,342.906177 346.331316,327.38233 355.044317,302.053948 L360.217661,260.657024 C359.999836,202.59239 309.409975,181.893928 262.033034,181.893928 L147.075879,181.893928 C99.698937,181.893928 49.0546198,202.59239 48.891251,260.657024 L54.0645953,301.999479 L54.0645953,301.999479 Z" id="形状" fill="#9F6847"></path>
            <path d="M262.662018,177 L238.986053,177 C295.84095,177 342.324036,204.492439 342.324036,261.491614 L337.056677,303.737421 C321.254599,351.263954 249.08635,374.346714 192.231454,374.346714 L183,374.618917 C187.018398,374.836679 190.982493,375 194.837982,375 L215.907418,374.346714 C272.762315,374.346714 344.930564,351.263954 360.732641,303.737421 L366,261.491614 C366,204.492439 319.516914,177 262.662018,177 L262.662018,177 Z" id="路径" fill="#C17B1E"></path>
            <path d="M72.1344735,303.737421 L66.8323273,261.491614 C66.8323273,204.492439 113.677062,177 170.852783,177 L147.020456,177 C89.8447351,177 43,204.492439 43,261.491614 L48.3021462,303.737421 C64.2085848,348.596371 136.853454,375 194.083836,375 L206,374.618917 C151.065392,371.352488 87.0023474,345.547704 72.1344735,303.737421 L72.1344735,303.737421 Z" id="路径" fill="#FCC172"></path>
            <path d="M194.071627,380 L193.962715,380 C163.902862,380 131.011284,372.973417 103.674244,360.717748 C81.7283729,350.858744 53.5200327,333.210581 43.6089943,305.049778 L43.3911693,304.505082 L38,261.310659 L38,260.983842 C38,232.387282 49.2724448,208.910868 70.6192968,192.951264 C89.8968111,178.57128 116.308095,171 147.075879,171 L261.924121,171 C292.691905,171 319.103189,178.57128 338.380703,192.951264 C359.727555,208.856398 371,232.387282 371,260.983842 L371,261.310659 L365.608831,304.450612 L365.445462,304.940839 C357.658217,328.253844 336.855928,347.753974 305.2713,361.371384 C278.80556,372.755538 245.968438,379.291895 215.146198,379.291895 L194.071627,380 Z M54.0645953,301.999479 C69.2034342,343.450873 138.253966,369.106072 193.908258,369.160542 L215.146198,368.506906 C244.607032,368.506906 275.919379,362.297368 301.023712,351.45791 C320.900245,342.906177 346.331316,327.38233 355.044317,302.053948 L360.217661,260.657024 C359.999836,202.59239 309.409975,181.893928 262.033034,181.893928 L147.075879,181.893928 C99.698937,181.893928 49.0546198,202.59239 48.891251,260.657024 L54.0645953,301.999479 L54.0645953,301.999479 Z" id="形状" fill="#9F6847"></path>
            <path d="M366,246.492841 C366,265.417812 351.799797,259.29181 336.889584,274.333333 C325.802503,285.491409 322.689381,315.683849 305.102976,322.083333 C275.99256,332.694444 258.843084,302.88488 241.52976,306.166667 C226.455698,309.010882 220.338688,335.319874 191.228272,332.694444 C171.839533,330.944158 164.302503,312.89433 146.224552,308.846793 C133.280521,305.947881 141.036016,338 111.816368,338 C96.3599932,338 98.3261752,288.226231 88.00372,279.638889 C78.5005073,271.7626 59.0025364,299.657789 53.595536,290.25 C47.642374,279.857675 43,258.088488 43,246.492841 C43,191.577606 115.311803,147 204.554616,147 C293.79743,147 366,191.577606 366,246.492841 L366,246.492841 Z" id="路径" fill="#F9B0CE"></path>
            <path d="M112.157292,343 C105.786952,343 100.777796,338.42563 97.4020602,329.44026 C94.9519294,323.014359 93.3729562,314.845841 91.8484303,306.89515 C90.1605625,298.073151 87.8193264,286.038201 84.8791694,283.642102 C83.2457489,282.280683 75.5686723,287.780818 72.3018313,290.068003 C66.0403859,294.53346 60.7045455,298.345435 55.205363,297.201842 C53.4630477,296.820645 51.0129169,295.731509 49.2706017,292.736386 C42.7913669,281.518288 38,259.027635 38,246.448117 C38,218.021674 55.6953891,191.501219 87.764879,171.787862 C119.017659,152.564617 160.50654,142 204.5,142 C248.49346,142 289.982341,152.564617 321.235121,171.787862 C353.304611,191.501219 371,218.021674 371,246.448117 C371,261.31482 363.050687,264.908968 355.37361,268.339745 C350.800033,270.409103 345.627534,272.750745 340.400589,277.978597 C336.807063,281.627201 333.866906,288.4343 330.817855,295.677052 C325.536462,308.0932 319.547253,322.143051 306.697678,326.826334 C287.151079,333.905717 272.504742,325.138174 260.689666,318.113248 C253.611511,313.920076 247.513407,310.271471 242.449804,311.197237 C238.366252,311.959632 234.554938,315.826063 230.19915,320.29152 C222.195389,328.405581 211.251472,339.514766 190.779267,337.663235 C178.80085,336.574099 170.688195,330.093742 163.555592,324.375779 C157.784173,319.746952 152.339438,315.390409 145.206835,313.811162 C145.09794,313.811162 145.043492,313.756705 144.934598,313.756705 C144.117888,314.573557 142.865598,317.732051 142.048888,319.855866 C138.7276,328.514495 133.065075,343 112.157292,343 Z M84.3891432,272.587375 C87.764879,272.587375 90.2150098,273.894338 91.8484303,275.255757 C97.7831916,280.156868 99.9610857,291.592793 102.520111,304.825792 C103.99019,312.286372 105.460268,320.019236 107.529267,325.573828 C109.053793,329.60363 110.796109,332.108643 112.102845,332.108643 C125.605788,332.108643 128.65484,324.212409 131.921681,315.88052 C133.228417,312.613113 134.426259,309.509076 136.331916,307.112978 C139.163179,303.573286 143.192283,302.15741 147.602518,303.192089 C157.185252,305.37036 163.882276,310.707125 170.361511,315.88052 C177.16743,321.326199 183.047744,326.009483 191.75932,326.826334 C207.113473,328.242211 214.899444,320.29152 222.413179,312.66757 C227.585677,307.385261 232.975965,301.939583 240.435252,300.523706 C249.582407,298.781089 257.695062,303.627743 266.243296,308.801138 C277.078319,315.281496 288.240026,321.97968 302.940811,316.642915 C311.325703,313.593335 316.11707,302.32078 320.745095,291.48388 C324.229725,283.260905 327.551014,275.528041 332.614617,270.409103 C339.257194,263.710918 345.681982,260.824709 350.85448,258.483067 C357.932636,255.270116 360.056082,254.344351 360.056082,246.502574 C360.056082,221.99702 344.211903,198.798429 315.463702,181.099973 C285.89879,162.911406 246.478908,152.891357 204.445553,152.891357 C162.412198,152.891357 122.992315,162.911406 93.4274035,181.099973 C64.7880968,198.689515 48.9439176,221.942563 48.9439176,246.39366 C48.9439176,256.74045 53.0274689,276.344893 58.1999673,286.201571 C60.2145193,285.330263 63.7535971,282.825251 66.0403859,281.191547 C69.7428058,278.577621 73.499673,275.854782 77.3654349,274.166622 C80.0333551,273.023029 82.3745912,272.587375 84.3891432,272.587375 L84.3891432,272.587375 Z" id="形状" fill="#9F6847"></path>
            <path d="M67.2461059,279.638889 C63.1028037,276.193013 56.9968847,279.638889 51,283.795819 C51.9267913,286.257159 52.9626168,288.445017 53.9984424,290.25 C56.8333333,295.227377 63.5389408,289.867125 70.6806854,284.835052 C69.6993769,282.537801 68.6090343,280.732818 67.2461059,279.638889 L67.2461059,279.638889 Z M125.415888,308.792096 C115.330218,306.494845 117.838006,325.474513 105.626168,334.007159 C107.425234,336.523196 109.551402,338 112.222741,338 C131.903427,338 134.792835,323.450745 138.554517,314.808706 C134.683801,312.12858 130.431464,309.940722 125.415888,308.792096 Z M204.738318,147 C201.194704,147 197.65109,147.054696 194.161994,147.218786 C278.281931,150.555269 344.847352,193.710767 344.847352,246.492841 C344.847352,265.417812 330.672897,259.29181 315.78972,274.333333 C304.722741,285.491409 301.615265,315.683849 284.060748,322.083333 L282.098131,322.739691 C288.96729,324.818156 296.545171,325.255727 305.213396,322.083333 C322.767913,315.683849 325.875389,285.491409 336.942368,274.333333 C351.825545,259.237113 366,265.417812 366,246.492841 C366,191.52291 293.819315,147 204.738318,147 L204.738318,147 Z M220.602804,306.166667 C208.445483,308.463918 202.121495,326.021478 184.894081,331.38173 C186.965732,332.038087 189.146417,332.475659 191.545171,332.694444 C215.805296,334.882302 224.037383,316.996564 234.831776,309.339061 C229.925234,306.768328 225.291277,305.236827 220.602804,306.166667 Z" id="形状" fill="#EA71A8"></path>
            <path d="M109.132214,279.655597 C104.603358,275.937303 97.8373557,280.257086 91.3987408,284.850272 C98.0556139,300.270255 98.3284365,338 111.751312,338 C118.189927,338 122.882476,336.414257 126.320042,334.008302 C117.807975,322.033209 117.698846,286.709419 109.132214,279.655597 L109.132214,279.655597 Z M64.1710388,246.464357 C64.1710388,193.752076 130.794334,150.608932 214.987408,147.218723 C211.495278,147.054681 207.948583,147 204.401889,147 C115.243442,147.054681 43,191.564844 43,246.464357 C43,258.111366 47.6379853,279.87432 53.5855194,290.208989 C56.6411333,295.513026 64.0619098,289.060693 71.7555089,283.756656 C67.2812172,272.492413 64.1710388,256.033496 64.1710388,246.464357 L64.1710388,246.464357 Z M262.622246,306.17578 C260.112277,306.667907 257.875131,307.761523 255.69255,309.347266 C268.460651,315.85428 282.811123,328.97767 303,322.79874 C286.794334,317.822788 274.735572,303.824506 262.622246,306.17578 Z M167.352571,308.800458 C163.151102,307.870885 161.132214,310.604924 159.27702,314.815345 C169.316894,321.650444 177.174187,331.383624 191.142707,332.695963 C196.762854,333.18809 201.509969,332.641283 205.656873,331.383624 C190.979014,326.681076 183.23085,312.40939 167.352571,308.800458 L167.352571,308.800458 Z" id="形状" fill="#FFD1E1"></path>
            <path d="M112.157292,343 C105.786952,343 100.777796,338.42563 97.4020602,329.44026 C94.9519294,323.014359 93.3729562,314.845841 91.8484303,306.89515 C90.1605625,298.073151 87.8193264,286.038201 84.8791694,283.642102 C83.2457489,282.280683 75.5686723,287.780818 72.3018313,290.068003 C66.0403859,294.53346 60.7045455,298.345435 55.205363,297.201842 C53.4630477,296.820645 51.0129169,295.731509 49.2706017,292.736386 C42.7913669,281.518288 38,259.027635 38,246.448117 C38,218.021674 55.6953891,191.501219 87.764879,171.787862 C119.017659,152.564617 160.50654,142 204.5,142 C248.49346,142 289.982341,152.564617 321.235121,171.787862 C353.304611,191.501219 371,218.021674 371,246.448117 C371,261.31482 363.050687,264.908968 355.37361,268.339745 C350.800033,270.409103 345.627534,272.750745 340.400589,277.978597 C336.807063,281.627201 333.866906,288.4343 330.817855,295.677052 C325.536462,308.0932 319.547253,322.143051 306.697678,326.826334 C287.151079,333.905717 272.504742,325.138174 260.689666,318.113248 C253.611511,313.920076 247.513407,310.271471 242.449804,311.197237 C238.366252,311.959632 234.554938,315.826063 230.19915,320.29152 C222.195389,328.405581 211.251472,339.514766 190.779267,337.663235 C178.80085,336.574099 170.688195,330.093742 163.555592,324.375779 C157.784173,319.746952 152.339438,315.390409 145.206835,313.811162 C145.09794,313.811162 145.043492,313.756705 144.934598,313.756705 C144.117888,314.573557 142.865598,317.732051 142.048888,319.855866 C138.7276,328.514495 133.065075,343 112.157292,343 Z M84.3891432,272.587375 C87.764879,272.587375 90.2150098,273.894338 91.8484303,275.255757 C97.7831916,280.156868 99.9610857,291.592793 102.520111,304.825792 C103.99019,312.286372 105.460268,320.019236 107.529267,325.573828 C109.053793,329.60363 110.796109,332.108643 112.102845,332.108643 C125.605788,332.108643 128.65484,324.212409 131.921681,315.88052 C133.228417,312.613113 134.426259,309.509076 136.331916,307.112978 C139.163179,303.573286 143.192283,302.15741 147.602518,303.192089 C157.185252,305.37036 163.882276,310.707125 170.361511,315.88052 C177.16743,321.326199 183.047744,326.009483 191.75932,326.826334 C207.113473,328.242211 214.899444,320.29152 222.413179,312.66757 C227.585677,307.385261 232.975965,301.939583 240.435252,300.523706 C249.582407,298.781089 257.695062,303.627743 266.243296,308.801138 C277.078319,315.281496 288.240026,321.97968 302.940811,316.642915 C311.325703,313.593335 316.11707,302.32078 320.745095,291.48388 C324.229725,283.260905 327.551014,275.528041 332.614617,270.409103 C339.257194,263.710918 345.681982,260.824709 350.85448,258.483067 C357.932636,255.270116 360.056082,254.344351 360.056082,246.502574 C360.056082,221.99702 344.211903,198.798429 315.463702,181.099973 C285.89879,162.911406 246.478908,152.891357 204.445553,152.891357 C162.412198,152.891357 122.992315,162.911406 93.4274035,181.099973 C64.7880968,198.689515 48.9439176,221.942563 48.9439176,246.39366 C48.9439176,256.74045 53.0274689,276.344893 58.1999673,286.201571 C60.2145193,285.330263 63.7535971,282.825251 66.0403859,281.191547 C69.7428058,278.577621 73.499673,275.854782 77.3654349,274.166622 C80.0333551,273.023029 82.3745912,272.587375 84.3891432,272.587375 L84.3891432,272.587375 Z" id="形状" fill="#9F6847"></path>
            <path d="M347,222.583502 C347,251.464214 282.54597,283 203,283 C123.45403,283 59,259.375253 59,222.583502 C59,191.047715 123.45403,149 203,149 C282.54597,149 347,183.136676 347,222.583502 Z" id="路径" fill="#FFD1E1"></path>
            <path d="M203.445498,288 C163.331754,288 126.433649,281.989521 99.563981,271.061377 C85.556872,265.378743 74.5473934,258.494012 66.8625592,250.625749 C58.3056872,241.883234 54,232.157186 54,221.611527 C54,203.689371 70.8412322,183.581587 98.964455,167.84506 C128.777251,151.179641 165.893365,142 203.5,142 C242.578199,142 279.63981,150.086826 307.872038,164.78518 C321.71564,171.997754 332.670616,180.412425 340.409953,189.810629 C348.748815,199.919162 353,210.628743 353,221.666168 C353,238.331587 336.43128,255.215569 307.545024,268.056138 C278.495261,280.896707 241.542654,288 203.445498,288 L203.445498,288 Z M203.445498,152.873503 C167.691943,152.873503 132.483412,161.561377 104.251185,177.352545 C79.943128,190.958084 64.8459716,207.896707 64.8459716,221.611527 C64.8459716,236.801647 78.6350711,250.73503 103.651659,260.952844 C129.267773,271.389222 164.748815,277.126497 203.445498,277.126497 C240.07109,277.126497 275.443128,270.351048 303.075829,258.056886 C327.111374,247.347305 342.045024,233.413922 342.045024,221.666168 C342.045024,204.672904 327.7109,187.515719 302.803318,174.511228 C276.097156,160.523204 240.779621,152.873503 203.445498,152.873503 Z" id="形状" fill="#9F6847"></path>
            <path d="M203.64278,149 C199.84452,149 196.100521,149.108327 192.356521,149.270816 C265.771462,152.628941 323.342232,185.235247 323.342232,222.553759 C323.342232,250.068715 265.066071,280.021019 191,282.783347 C195.178086,282.891673 199.356172,283 203.588519,283 C282.809371,283 347,251.47696 347,222.607922 C347.054226,183.122878 282.863632,149 203.64278,149 L203.64278,149 Z" id="路径" fill="#EF8FB7"></path>
            <path d="M83.6907001,222.583502 C83.6907001,192.564901 141.939394,153.009705 216,149.270926 C211.924765,149.10837 207.795193,149 203.611285,149 C124.280042,149 60,191.047715 60,222.583502 C60,259.375253 124.280042,283 203.611285,283 C207.360502,283 211.055381,282.945815 214.695925,282.783259 C141.287356,280.453296 83.6907001,257.3704 83.6907001,222.583502 Z" id="路径" fill="#FFFFFF"></path>
            <path d="M203.445498,288 C163.331754,288 126.433649,281.989521 99.563981,271.061377 C85.556872,265.378743 74.5473934,258.494012 66.8625592,250.625749 C58.3056872,241.883234 54,232.157186 54,221.611527 C54,203.689371 70.8412322,183.581587 98.964455,167.84506 C128.777251,151.179641 165.893365,142 203.5,142 C242.578199,142 279.63981,150.086826 307.872038,164.78518 C321.71564,171.997754 332.670616,180.412425 340.409953,189.810629 C348.748815,199.919162 353,210.628743 353,221.666168 C353,238.331587 336.43128,255.215569 307.545024,268.056138 C278.495261,280.896707 241.542654,288 203.445498,288 L203.445498,288 Z M203.445498,152.873503 C167.691943,152.873503 132.483412,161.561377 104.251185,177.352545 C79.943128,190.958084 64.8459716,207.896707 64.8459716,221.611527 C64.8459716,236.801647 78.6350711,250.73503 103.651659,260.952844 C129.267773,271.389222 164.748815,277.126497 203.445498,277.126497 C240.07109,277.126497 275.443128,270.351048 303.075829,258.056886 C327.111374,247.347305 342.045024,233.413922 342.045024,221.666168 C342.045024,204.672904 327.7109,187.515719 302.803318,174.511228 C276.097156,160.523204 240.779621,152.873503 203.445498,152.873503 Z" id="形状" fill="#9F6847"></path>
            <path d="M149,212 C149,226.359403 172.728908,238 202,238 C231.271092,238 255,226.359403 255,212 C255,197.640597 231.271092,186 202,186 C172.728908,186 149,197.640597 149,212 Z" id="路径" fill="#A54165"></path>
            <path d="M202,243 C187.147664,243 173.054206,240.046154 162.375701,234.630769 C150.504673,228.668376 144,220.244444 144,211 C144,201.755556 150.558879,193.331624 162.375701,187.369231 C173.054206,182.008547 187.093458,179 202,179 C216.852336,179 230.945794,181.953846 241.624299,187.369231 C253.495327,193.331624 260,201.755556 260,211 C260,220.244444 253.441121,228.668376 241.570093,234.630769 C230.891589,240.046154 216.852336,243 202,243 Z M202,189.940171 C174.192523,189.940171 154.841121,201.044444 154.841121,211 C154.841121,220.955556 174.192523,232.059829 202,232.059829 C229.807477,232.059829 249.158879,220.955556 249.158879,211 C249.158879,201.044444 229.753271,189.940171 202,189.940171 Z" id="形状" fill="#9F6847"></path>
            <path d="M302.02407,393.643767 L287.840194,377.985209 C250.940378,334.652327 224.202957,262.503351 248.060128,221.399638 L276.753946,190.028154 C320.066395,153.110931 371.150086,170.781177 407.995558,214.114059 L482.338632,301.432263 C519.238448,344.765145 528.476988,398.047736 485.164539,434.910589 L449.623332,458.235315 C403.267599,477.047331 338.869541,436.976649 302.02407,393.643767 L302.02407,393.643767 Z" id="路径" fill="#E29C37"></path>
            <path d="M424.288088,470 C407.648624,470 389.208824,465.142919 369.841578,455.592477 C343.982213,442.822173 317.686403,421.974925 297.609934,398.453553 L283.370917,382.681682 C263.840004,359.760623 247.855207,330.072395 239.453641,301.25735 C232.7433,278.117996 227.833294,245.100757 242.890646,219.232705 L243.163424,218.741539 L272.568904,186.597483 L272.841682,186.379187 C294.609375,167.824045 319.923184,161.166023 345.89166,167.114584 C369.350577,172.462831 392.318494,187.743536 412.285852,211.210334 L486.917942,298.856096 C506.8853,322.322894 518.287425,347.426911 519.814982,371.439448 C521.560762,398.071535 510.922416,421.974925 489.154723,440.530068 L488.881945,440.748363 L452.493345,464.651753 L452.002344,464.870049 C443.491667,468.308208 434.217212,470 424.288088,470 L424.288088,470 Z M291.608816,375.587068 L305.902389,391.35894 C324.996857,413.843407 350.092443,433.65375 374.697028,445.823741 C394.11883,455.428756 422.487753,464.760901 447.419672,454.93759 L482.33527,432.016532 C526.470768,394.142211 509.394859,342.078664 478.625488,305.95071 L403.993397,218.250374 C385.553597,196.584516 364.604238,182.559011 343.491212,177.756504 C320.741518,172.571978 299.464825,178.193095 280.206691,194.456132 L252.05599,225.235839 C230.233741,263.765047 255.492994,333.073962 291.608816,375.587068 Z" id="形状" fill="#9F6847"></path>
            <path d="M482.301336,302.093942 L466.894641,284 C503.859821,327.43636 513.114726,380.846188 469.725553,417.797069 L434.121389,441.177494 C387.683542,459.925433 323.17141,419.759063 286.20623,376.322702 L280,369.455725 C282.395387,372.671214 284.899656,375.777704 287.403924,378.720695 L301.612925,394.416644 C338.578105,437.853004 403.035796,478.019375 449.528084,459.271435 L485.132248,435.891011 C528.521421,398.88563 519.212075,345.530302 482.301336,302.093942 L482.301336,302.093942 Z" id="路径" fill="#C17B1E"></path>
            <path d="M263.389871,239.837094 L292.025327,208.29097 C335.249681,171.168235 386.229471,188.936849 423,232.510958 L407.651829,214.359635 C370.827066,170.785526 319.90151,153.016912 276.677156,190.139647 L248.0417,221.685771 C224.233053,263.018302 250.916092,335.56892 287.740855,379.143029 L295.713227,388 C262.847532,343.933837 241.208239,278.381319 263.389871,239.837094 Z" id="路径" fill="#FCC172"></path>
            <path d="M424.288088,470 C407.648624,470 389.208824,465.142919 369.841578,455.592477 C343.982213,442.822173 317.686403,421.974925 297.609934,398.453553 L283.370917,382.681682 C263.840004,359.760623 247.855207,330.072395 239.453641,301.25735 C232.7433,278.117996 227.833294,245.100757 242.890646,219.232705 L243.163424,218.741539 L272.568904,186.597483 L272.841682,186.379187 C294.609375,167.824045 319.923184,161.166023 345.89166,167.114584 C369.350577,172.462831 392.318494,187.743536 412.285852,211.210334 L486.917942,298.856096 C506.8853,322.322894 518.287425,347.426911 519.814982,371.439448 C521.560762,398.071535 510.922416,421.974925 489.154723,440.530068 L488.881945,440.748363 L452.493345,464.651753 L452.002344,464.870049 C443.491667,468.308208 434.217212,470 424.288088,470 L424.288088,470 Z M291.608816,375.587068 L305.902389,391.35894 C324.996857,413.843407 350.092443,433.65375 374.697028,445.823741 C394.11883,455.428756 422.487753,464.760901 447.419672,454.93759 L482.33527,432.016532 C526.470768,394.142211 509.394859,342.078664 478.625488,305.95071 L403.993397,218.250374 C385.553597,196.584516 364.604238,182.559011 343.491212,177.756504 C320.741518,172.571978 299.464825,178.193095 280.206691,194.456132 L252.05599,225.235839 C230.233741,263.765047 255.492994,333.073962 291.608816,375.587068 Z" id="形状" fill="#9F6847"></path>
            <path d="M496.634492,425.716028 C482.251465,437.9517 477.784009,423.160132 456.645318,421.58309 C441.009223,420.386713 416.111331,437.462274 399.875944,428.271924 C372.962249,413.045309 384.512256,380.851896 370.837484,369.8126 C358.906109,360.241585 334.988877,372.531639 318.154198,348.767244 C306.931078,332.942441 315.757026,315.594976 307.149002,299.226366 C300.992631,287.534501 281.651817,314.126696 262.746853,291.939343 C252.722319,280.193097 291.785314,249.631107 291.567389,236.253438 C291.403946,223.963385 257.625624,227.17185 261.275862,217.002647 C265.307468,205.800209 278.818797,188.235222 287.590264,180.785057 C329.268355,145.383178 409.791516,171.540326 467.487069,239.135619 C525.182623,306.730911 538.312583,390.314149 496.634492,425.716028 L496.634492,425.716028 Z" id="路径" fill="#513312"></path>
            <path d="M410.732421,437 C405.827217,437 401.031018,436.072084 396.616335,433.561254 C378.521584,423.245014 375.687466,406.378781 373.398371,392.787545 C372.035815,384.654637 370.836765,377.613394 366.8581,374.392981 C363.642466,371.772984 358.19224,371.390901 351.978982,370.954235 C340.588009,370.135485 325.054865,368.989237 313.173372,352.177587 C306.251584,342.352597 305.924571,331.927191 305.652059,322.757201 C305.43405,315.333875 305.216041,308.347215 301.782399,301.851805 C301.727896,301.742639 301.673394,301.688056 301.673394,301.633472 C300.528847,301.524306 297.313213,302.615971 295.133123,303.380137 C286.358259,306.436801 271.642648,311.513046 258.071584,295.520145 C253.929413,290.662234 254.201924,283.893907 258.834616,275.433499 C262.159254,269.429339 267.391471,262.879346 272.405679,256.547685 C278.019412,249.506443 285.704231,239.899786 285.649729,236.13354 C285.595227,234.004792 276.493349,231.712294 272.569186,230.729795 C265.102376,228.873964 258.725612,227.236465 256.055001,222.323971 C255.182965,220.741055 254.419933,218.175641 255.618983,214.900645 C259.979164,202.673991 273.986245,184.388593 283.578643,176.201101 C305.216041,157.751954 336.881856,153.985707 372.744344,165.666529 C407.680294,177.01985 442.670747,201.800658 471.229932,235.423957 C499.789117,269.047256 518.6469,307.528466 524.260633,343.880929 C530.037873,381.215891 521.317511,411.946276 499.680113,430.395423 C488.343642,440.056664 480.440814,436.290417 472.865,432.687921 C468.341312,430.559173 463.163597,428.102926 455.805792,427.50251 C450.682579,427.120427 443.597285,429.303758 436.130475,431.650839 C427.900633,434.270836 419.125769,437 410.732421,437 L410.732421,437 Z M301.509887,290.716817 C305.870068,290.716817 309.358213,292.845565 311.429299,296.775561 C316.007489,305.508885 316.280001,314.133043 316.552512,322.429701 C316.825023,331.163025 317.043032,338.695518 322.111743,345.90051 C330.995611,358.509247 342.114073,359.327996 352.796516,360.092162 C360.208824,360.637995 367.839141,361.183828 373.725385,365.932573 C380.974186,371.772984 382.554751,381.106724 384.189819,391.040881 C386.260905,403.485868 388.440996,416.367521 402.012059,424.118347 C409.805882,428.539592 421.469367,424.882512 432.751335,421.334599 C441.253688,418.660019 449.320023,416.149188 456.514321,416.695021 C465.943213,417.404603 472.319977,420.461267 477.44319,422.862931 C484.473982,426.192511 486.59957,427.229593 492.540316,422.098765 C511.18009,406.160448 518.6469,379.03256 513.414683,345.573011 C508.073461,311.185546 490.142217,274.560167 462.836584,242.519783 C435.585452,210.424816 402.339073,186.84484 369.310702,176.091935 C337.208869,165.611945 309.194706,168.614026 290.554933,184.552343 C282.652105,191.266086 270.389096,207.095236 266.246924,217.466059 C268.209005,218.448558 272.460182,219.48564 275.130793,220.195223 C279.545476,221.286888 284.069164,222.433137 287.82982,224.288969 C294.860611,227.727715 296.386675,232.585627 296.441177,236.024373 C296.550182,243.720615 289.246878,252.836023 280.85353,263.425178 C276.111833,269.374756 271.20663,275.542666 268.31801,280.728077 C266.246924,284.494323 265.483892,287.44182 266.301426,288.424319 C275.07629,298.740559 283.033621,295.956812 291.535973,293.009315 C294.860611,291.863066 298.021743,290.7714 301.073869,290.662234 C301.237376,290.716817 301.400883,290.716817 301.509887,290.716817 L301.509887,290.716817 Z" id="形状" fill="#9F6847"></path>
            <path d="M277.892373,219.703105 C277.837885,214.306434 271.244873,211.853402 264.215958,210 C262.962741,212.289497 261.981963,214.46997 261.273622,216.486907 C259.366553,221.829066 267.757659,223.518933 276.203254,225.644894 C277.293008,223.409909 277.946861,221.392972 277.892373,219.703105 Z M293.475857,282.827799 C288.680939,273.669812 275.876328,287.842887 261.546061,284.027059 C260.783233,286.970698 261.055672,289.587265 262.799278,291.604203 C275.549401,306.594955 288.462988,299.399394 297.453459,296.673803 C296.908582,291.985786 295.873316,287.35228 293.475857,282.827799 Z M467.564079,238.67322 C465.275596,235.947629 462.932624,233.331061 460.535165,230.769006 C512.516437,297.000873 522.923589,375.552414 482.875125,409.622305 C468.49037,421.887466 464.022378,407.060249 442.881148,405.479406 C427.243176,404.280146 402.342295,421.396859 386.104958,412.184361 C385.505593,411.85729 384.906228,411.475707 384.306864,411.094124 C387.194712,417.635543 391.771679,423.740868 399.781372,428.265349 C416.018709,437.477848 440.919591,420.361135 456.557562,421.560395 C477.644305,423.195749 482.166785,437.968454 496.551539,425.703293 C538.289122,390.216095 525.26656,306.485931 467.564079,238.67322 Z M357.117498,353.529637 C347.527662,345.788957 330.091596,352.330376 314.889526,342.627271 C315.706841,344.644209 316.796595,346.606635 318.158788,348.514549 C332.162129,368.411365 351.12385,363.123718 363.928461,366.394427 C362.675244,361.10678 360.822662,356.527787 357.117498,353.529637 L357.117498,353.529637 Z" id="形状" fill="#2B1A07"></path>
            <path d="M305.414711,252.269636 C305.360023,246.456157 297.649115,244.119899 289.938207,242.163962 C282.555423,257.159479 253.95397,281.663022 262.703937,291.877359 C266.914858,296.767201 271.125779,299.266454 275.172639,300.353085 C278.782,286.172543 305.578773,263.353279 305.414711,252.269636 L305.414711,252.269636 Z M301.422539,196.851424 C341.56301,162.894186 417.687719,185.604787 475,247.271131 C472.812508,244.554552 470.625017,241.783641 468.273463,239.121394 C410.359622,171.532907 329.531806,145.399417 287.696028,180.769276 C278.836687,188.267034 265.274239,205.761803 261.282067,216.954109 C259.20395,222.658925 268.992975,224.180209 278.016378,226.516467 C283.703856,215.921809 294.149129,202.990893 301.422539,196.851424 L301.422539,196.851424 Z M384.930032,385.707999 C382.961289,384.132383 380.609736,383.100083 378.039433,382.502435 C381.375358,396.41132 380.71911,415.699031 398.547167,427 C391.765943,411.569831 394.609682,393.423083 384.930032,385.707999 Z M321.055276,315.185607 C319.031846,311.382396 315.641234,311.654054 311.266251,312.958012 C312.578746,325.019623 310.227192,337.189897 318.375599,348.653861 C321.656836,353.272045 325.156823,356.477608 328.820871,358.813866 C322.750582,344.633324 328.602122,329.529144 321.055276,315.185607 L321.055276,315.185607 Z" id="形状" fill="#6D3E24"></path>
            <path d="M410.732421,437 C405.827217,437 401.031018,436.072084 396.616335,433.561254 C378.521584,423.245014 375.687466,406.378781 373.398371,392.787545 C372.035815,384.654637 370.836765,377.613394 366.8581,374.392981 C363.642466,371.772984 358.19224,371.390901 351.978982,370.954235 C340.588009,370.135485 325.054865,368.989237 313.173372,352.177587 C306.251584,342.352597 305.924571,331.927191 305.652059,322.757201 C305.43405,315.333875 305.216041,308.347215 301.782399,301.851805 C301.727896,301.742639 301.673394,301.688056 301.673394,301.633472 C300.528847,301.524306 297.313213,302.615971 295.133123,303.380137 C286.358259,306.436801 271.642648,311.513046 258.071584,295.520145 C253.929413,290.662234 254.201924,283.893907 258.834616,275.433499 C262.159254,269.429339 267.391471,262.879346 272.405679,256.547685 C278.019412,249.506443 285.704231,239.899786 285.649729,236.13354 C285.595227,234.004792 276.493349,231.712294 272.569186,230.729795 C265.102376,228.873964 258.725612,227.236465 256.055001,222.323971 C255.182965,220.741055 254.419933,218.175641 255.618983,214.900645 C259.979164,202.673991 273.986245,184.388593 283.578643,176.201101 C305.216041,157.751954 336.881856,153.985707 372.744344,165.666529 C407.680294,177.01985 442.670747,201.800658 471.229932,235.423957 C499.789117,269.047256 518.6469,307.528466 524.260633,343.880929 C530.037873,381.215891 521.317511,411.946276 499.680113,430.395423 C488.343642,440.056664 480.440814,436.290417 472.865,432.687921 C468.341312,430.559173 463.163597,428.102926 455.805792,427.50251 C450.682579,427.120427 443.597285,429.303758 436.130475,431.650839 C427.900633,434.270836 419.125769,437 410.732421,437 L410.732421,437 Z M301.509887,290.716817 C305.870068,290.716817 309.358213,292.845565 311.429299,296.775561 C316.007489,305.508885 316.280001,314.133043 316.552512,322.429701 C316.825023,331.163025 317.043032,338.695518 322.111743,345.90051 C330.995611,358.509247 342.114073,359.327996 352.796516,360.092162 C360.208824,360.637995 367.839141,361.183828 373.725385,365.932573 C380.974186,371.772984 382.554751,381.106724 384.189819,391.040881 C386.260905,403.485868 388.440996,416.367521 402.012059,424.118347 C409.805882,428.539592 421.469367,424.882512 432.751335,421.334599 C441.253688,418.660019 449.320023,416.149188 456.514321,416.695021 C465.943213,417.404603 472.319977,420.461267 477.44319,422.862931 C484.473982,426.192511 486.59957,427.229593 492.540316,422.098765 C511.18009,406.160448 518.6469,379.03256 513.414683,345.573011 C508.073461,311.185546 490.142217,274.560167 462.836584,242.519783 C435.585452,210.424816 402.339073,186.84484 369.310702,176.091935 C337.208869,165.611945 309.194706,168.614026 290.554933,184.552343 C282.652105,191.266086 270.389096,207.095236 266.246924,217.466059 C268.209005,218.448558 272.460182,219.48564 275.130793,220.195223 C279.545476,221.286888 284.069164,222.433137 287.82982,224.288969 C294.860611,227.727715 296.386675,232.585627 296.441177,236.024373 C296.550182,243.720615 289.246878,252.836023 280.85353,263.425178 C276.111833,269.374756 271.20663,275.542666 268.31801,280.728077 C266.246924,284.494323 265.483892,287.44182 266.301426,288.424319 C275.07629,298.740559 283.033621,295.956812 291.535973,293.009315 C294.860611,291.863066 298.021743,290.7714 301.073869,290.662234 C301.237376,290.716817 301.400883,290.716817 301.509887,290.716817 L301.509887,290.716817 Z" id="形状" fill="#9F6847"></path>
            <path d="M502.727772,396.238092 C480.6078,415.127061 414.683746,386.520646 363.08864,325.868495 C311.493534,265.216344 287.848046,200.578948 316.015597,176.558295 C340.151428,155.976962 414.13892,177.704735 465.679543,238.356886 C517.220167,299.009037 532.911182,370.470482 502.727772,396.238092 Z" id="路径" fill="#6B491F"></path>
            <path d="M485.523293,407 C473.640522,407 459.141362,403.138681 443.115973,395.416044 C414.499209,381.711083 385.11933,358.216863 360.42715,329.284166 C334.426775,298.828696 315.076392,266.904836 305.919027,239.386144 C301.17682,225.08295 299.269036,212.248144 300.250182,201.316806 C301.340345,189.189002 305.973535,179.617283 313.931721,172.819187 C327.558752,161.235231 353.722651,161.072077 383.97466,172.275339 C415.970928,184.185604 447.040558,206.428974 471.351181,234.980977 C496.697459,264.675061 514.576123,298.067309 521.716687,329.012242 C525.205207,344.185592 525.913813,357.944939 523.842504,369.855203 C521.607671,382.690009 516.211367,392.85996 507.817116,399.92998 C502.311795,404.661455 494.680658,407 485.523293,407 L485.523293,407 Z M343.148075,174.831424 C333.663662,174.831424 325.923508,176.898045 321.017777,181.085672 C309.462055,190.87493 307.826811,210.344677 316.27557,235.905518 C324.99687,262.118977 343.58414,292.737601 368.712385,322.159761 C392.423419,349.950378 420.54961,372.465672 447.803672,385.572401 C471.514706,396.938818 491.791727,399.277363 500.73106,391.663495 C513.594977,380.732157 517.410545,358.76071 511.087603,331.405172 C504.328596,302.146166 487.267553,270.385462 463.065946,241.996613 C439.899994,214.858613 410.465607,193.702938 380.159091,182.445291 C366.477552,177.387508 353.722651,174.831424 343.148075,174.831424 L343.148075,174.831424 Z" id="形状" fill="#9F6847"></path>
            <path d="M466.662917,239.404852 C464.211006,236.530935 461.650121,233.711243 459.089236,231 C504.313372,289.020594 516.845362,354.036195 488.239734,378.22048 C467.153299,396.114682 406.291419,371.117024 356,316.621045 C358.615372,319.874536 361.28523,323.128028 364.064063,326.327294 C415.663168,386.625332 481.59233,415.039156 503.714016,396.277356 C533.899765,370.683225 518.262022,299.702891 466.662917,239.404852 Z" id="路径" fill="#512508"></path>
            <path d="M332.341017,194.648596 C355.262831,175.076157 423.213516,193.776286 474,247.91398 C471.501414,244.64282 468.894193,241.42618 466.178338,238.264059 C414.794367,177.693084 341.031752,155.994392 316.969279,176.548179 C288.887341,200.536683 312.515277,265.087568 363.899249,325.658543 C366.343518,328.493548 368.787787,331.274034 371.232057,334 C325.497063,276.427589 305.779957,217.383156 332.341017,194.648596 L332.341017,194.648596 Z" id="路径" fill="#A07542"></path>
            <path d="M485.523293,407 C473.640522,407 459.141362,403.138681 443.115973,395.416044 C414.499209,381.711083 385.11933,358.216863 360.42715,329.284166 C334.426775,298.828696 315.076392,266.904836 305.919027,239.386144 C301.17682,225.08295 299.269036,212.248144 300.250182,201.316806 C301.340345,189.189002 305.973535,179.617283 313.931721,172.819187 C327.558752,161.235231 353.722651,161.072077 383.97466,172.275339 C415.970928,184.185604 447.040558,206.428974 471.351181,234.980977 C496.697459,264.675061 514.576123,298.067309 521.716687,329.012242 C525.205207,344.185592 525.913813,357.944939 523.842504,369.855203 C521.607671,382.690009 516.211367,392.85996 507.817116,399.92998 C502.311795,404.661455 494.680658,407 485.523293,407 L485.523293,407 Z M343.148075,174.831424 C333.663662,174.831424 325.923508,176.898045 321.017777,181.085672 C309.462055,190.87493 307.826811,210.344677 316.27557,235.905518 C324.99687,262.118977 343.58414,292.737601 368.712385,322.159761 C392.423419,349.950378 420.54961,372.465672 447.803672,385.572401 C471.514706,396.938818 491.791727,399.277363 500.73106,391.663495 C513.594977,380.732157 517.410545,358.76071 511.087603,331.405172 C504.328596,302.146166 487.267553,270.385462 463.065946,241.996613 C439.899994,214.858613 410.465607,193.702938 380.159091,182.445291 C366.477552,177.387508 353.722651,174.831424 343.148075,174.831424 L343.148075,174.831424 Z" id="形状" fill="#9F6847"></path>
            <path d="M397.499006,294.537343 C409.667121,308.836543 424.723881,318.80239 436.99704,320.680508 C449.270199,322.558627 456.894972,316.063656 456.998924,303.642407 C457.102875,291.221159 449.67021,274.760918 437.500994,260.462657 C425.332879,246.163457 410.276119,236.19761 398.00296,234.319492 C385.729801,232.441373 378.105028,238.936344 378.001076,251.357593 C377.897125,263.778841 385.32979,280.239082 397.499006,294.537343 L397.499006,294.537343 Z" id="路径" fill="#2D1F06"></path>
            <path d="M441.337281,328 C436.509477,328 431.133059,326.79446 425.427473,324.328583 C414.290608,319.616018 402.824574,310.738861 393.059244,299.286233 C383.293914,287.833604 376.326515,275.065841 373.473722,263.394024 C370.236899,250.352275 372.376494,239.885997 379.453615,233.858298 C386.530737,227.830598 397.228711,227.39222 409.572527,232.652758 C420.709392,237.365323 432.175426,246.24248 441.940756,257.695108 C451.706086,269.147737 458.673485,281.9155 461.526278,293.587317 C464.763101,306.629066 462.623506,317.095344 455.546385,323.123043 C451.760948,326.410879 446.933144,328 441.337281,328 L441.337281,328 Z M393.717581,239.995591 C390.755065,239.995591 388.341163,240.707956 386.585598,242.242279 C378.959863,248.708357 383.184191,270.846452 401.453039,292.217386 C419.667026,313.588319 440.843528,321.314734 448.469263,314.848656 C456.094999,308.382579 451.815809,286.244484 433.601822,264.87355 C424.93372,254.681259 414.894083,246.84525 405.293337,242.790252 C400.959286,240.927145 397.009265,239.995591 393.717581,239.995591 Z" id="形状" fill="#9F6847"></path>
            <path d="M351,234 C347.7,234 345,231.5625 345,228.583333 L345,213.416667 C345,210.4375 347.7,208 351,208 C354.3,208 357,210.4375 357,213.416667 L357,228.583333 C357,231.5625 354.3,234 351,234 Z" id="路径" fill="#46D3C2"></path>
            <path d="M398.722222,219 L390.277778,219 C387.375,219 385,216.3 385,213 C385,209.7 387.375,207 390.277778,207 L398.722222,207 C401.625,207 404,209.7 404,213 C404,216.3 401.625,219 398.722222,219 Z" id="路径" fill="#F25FA5"></path>
            <path d="M483.584156,350 C480.605442,350 478.168313,347.1875 478.168313,343.75 L478.168313,336.25 C478.168313,332.8125 480.605442,330 483.584156,330 C486.56287,330 489,332.8125 489,336.25 L489,343.75 C489,347.1875 486.56287,350 483.584156,350 Z M451.089095,365 C450.276718,365 449.464342,364.8125 448.651965,364.3125 L439.986616,359.3125 C437.332852,357.75 436.249684,354 437.549486,350.9375 C438.903447,347.875 442.152953,346.625 444.806716,348.125 L453.472066,353.125 C456.125829,354.6875 457.208998,358.4375 455.909196,361.5 C454.988502,363.75 453.092957,365 451.089095,365 Z" id="形状" fill="#46D3C2"></path>
            <path d="M400.44245,339 C399.900116,339 399.303549,338.887272 398.706983,338.71818 C395.886848,337.759991 394.314081,334.547239 395.290282,331.616309 L397.459616,324.852622 C398.381582,321.921691 401.472883,320.287133 404.293017,321.301686 C407.113152,322.259875 408.685919,325.472626 407.709718,328.403557 L405.540384,335.167244 C404.835351,337.534535 402.72025,339 400.44245,339 Z" id="路径" fill="#F25FA5"></path>
            <path d="M371.363636,306 L360.454545,306 C357.454545,306 355,303.1875 355,299.75 C355,296.3125 357.454545,293.5 360.454545,293.5 L371.363636,293.5 C374.363636,293.5 376.818182,296.3125 376.818182,299.75 C376.818182,303.1875 374.363636,306 371.363636,306 Z M469.545455,283.5 L465.181818,283.5 C462.181818,283.5 459.727273,280.6875 459.727273,277.25 C459.727273,273.8125 462.181818,271 465.181818,271 L469.545455,271 C472.545455,271 475,273.8125 475,277.25 C475,280.6875 472.545455,283.5 469.545455,283.5 Z" id="形状" fill="#46D3C2"></path>
            <path d="M353.531351,266.825425 C352.986876,266.825425 352.387953,266.716603 351.78903,266.55337 L338.721622,262.200502 C335.890351,261.275518 334.311372,258.174099 335.291428,255.344735 C336.217036,252.51537 339.320545,250.937455 342.151817,251.916851 L355.219224,256.269719 C358.050496,257.194704 359.629475,260.296122 358.649419,263.125487 C357.941601,265.410742 355.818147,266.825425 353.531351,266.825425 Z M425.402093,232.002478 C423.115296,232.002478 420.991842,230.533385 420.229577,228.30254 C419.303969,225.473176 420.8285,222.371757 423.659771,221.446773 L430.193475,219.270339 C433.024747,218.345354 436.128256,219.868858 437.053864,222.698222 C437.979472,225.527587 436.454941,228.629006 433.62367,229.55399 L427.089966,231.730424 C426.545491,231.893657 425.946568,232.002478 425.402093,232.002478 Z M488.561229,310.354108 C488.125649,310.354108 487.690068,310.299697 487.254488,310.190875 L478.542883,308.014441 C475.602716,307.3071 473.860395,304.314503 474.568213,301.430728 C475.276031,298.492541 478.270646,296.751394 481.156365,297.458735 L489.86797,299.635169 C492.808136,300.34251 494.550457,303.335107 493.84264,306.218883 C493.243717,308.721782 491.011368,310.354108 488.561229,310.354108 L488.561229,310.354108 Z M477.671723,380 C474.677108,380 472.22697,377.551512 472.22697,374.558915 L472.22697,370.206046 C472.22697,367.213449 474.677108,364.764961 477.671723,364.764961 C480.666337,364.764961 483.116476,367.213449 483.116476,370.206046 L483.116476,374.558915 C483.116476,377.551512 480.666337,380 477.671723,380 Z" id="形状" fill="#EFD554"></path>
        </g>
        <polygon id="路径" stroke="#9F6847" stroke-width="10" fill="url(#radialGradient-1)" fill-rule="nonzero" stroke-linejoin="round" points="227 366 171 366 171 310 227 310 198.423138 337.585624"></polygon>
    </g>
</svg>